<?xml version="1.0" standalone="no"?>
<!DOCTYPE svg PUBLIC "-//W3C//DTD SVG 20010904//EN"
 "http://www.w3.org/TR/2001/REC-SVG-20010904/DTD/svg10.dtd">
<svg version="1.0" xmlns="http://www.w3.org/2000/svg"
 width="360.000000pt" height="338.000000pt" viewBox="0 0 360.000000 338.000000"
 preserveAspectRatio="xMidYMid meet">

<g transform="translate(0.000000,338.000000) scale(0.100000,-0.100000)"
fill="#000000" stroke="none">
<path d="M1530 3075 l0 -145 230 0 230 0 0 145 0 145 -230 0 -230 0 0 -145z
m440 0 l0 -125 -210 0 -210 0 0 125 0 125 210 0 210 0 0 -125z"/>
<path d="M624 2920 c-54 -17 -128 -73 -161 -123 -98 -146 -43 -351 115 -429
67 -33 183 -37 245 -10 157 70 227 254 154 404 -50 102 -138 159 -252 164 -38
2 -84 -1 -101 -6z m82 -170 c6 -6 23 -6 47 2 20 6 40 8 44 4 4 -3 10 -25 13
-49 6 -39 7 -40 17 -18 7 19 11 21 16 9 5 -16 -3 -31 -54 -92 -15 -17 -30 -42
-34 -56 -4 -14 -16 -42 -27 -64 l-20 -38 -13 25 c-7 14 -18 42 -25 64 -7 21
-22 44 -32 51 -30 22 -70 92 -63 110 6 15 8 14 16 -5 11 -31 29 -29 29 3 0 41
18 64 48 64 16 0 32 -4 38 -10z"/>
<path d="M696 2552 c-3 -5 1 -9 9 -9 8 0 15 4 15 9 0 4 -4 8 -9 8 -6 0 -12 -4
-15 -8z"/>
<path d="M2715 2886 c-166 -52 -242 -243 -158 -397 48 -89 134 -139 241 -139
77 0 126 17 177 62 157 139 113 395 -82 468 -61 23 -119 25 -178 6z m75 -116
c0 -38 -2 -40 -30 -40 -35 0 -36 5 -10 48 26 43 40 40 40 -8z m42 18 c30 -47
30 -58 -2 -58 -28 0 -30 2 -30 40 0 45 11 51 32 18z m-99 -23 c-15 -31 -21
-35 -52 -35 l-36 1 39 34 c53 47 71 47 49 0z m157 13 c45 -31 49 -48 13 -48
-24 0 -33 7 -46 35 -19 41 -12 43 33 13z m-180 -93 c0 -34 -1 -35 -40 -35 -30
0 -40 4 -40 16 0 32 20 54 50 54 28 0 30 -3 30 -35z m80 0 c0 -33 -2 -35 -35
-35 -32 0 -35 3 -35 28 0 16 3 32 7 35 3 4 19 7 35 7 25 0 28 -3 28 -35z m72
20 c4 -5 8 -20 8 -32 0 -20 -5 -23 -35 -23 -33 0 -35 2 -35 36 0 33 2 35 28
32 15 -1 30 -7 34 -13z m89 -10 c15 -38 10 -45 -31 -45 -39 0 -40 1 -40 33 0
31 2 33 31 33 22 -1 34 -7 40 -21z m-241 -90 c0 -20 9 -54 20 -75 23 -45 19
-48 -27 -20 -29 17 -73 90 -73 119 0 6 18 11 40 11 39 0 40 -1 40 -35z m80 5
c0 -28 -3 -30 -35 -30 -32 0 -35 2 -35 30 0 28 3 30 35 30 32 0 35 -2 35 -30z
m78 3 c-2 -23 -8 -29 -35 -31 -31 -3 -33 -1 -33 27 0 29 3 31 36 31 33 0 35
-2 32 -27z m92 20 c-1 -38 -14 -53 -46 -53 -31 0 -34 3 -34 30 0 28 2 30 40
30 22 0 40 -3 40 -7z m-170 -115 l0 -41 -24 22 c-13 13 -26 31 -29 42 -4 15 0
19 24 19 27 0 29 -2 29 -42z m56 14 c-8 -16 -22 -34 -30 -41 -14 -12 -16 -9
-16 28 0 39 1 41 30 41 30 0 30 0 16 -28z m78 13 c-6 -14 -64 -55 -78 -55 -3
0 2 16 11 35 13 28 23 35 45 35 20 0 26 -4 22 -15z"/>
<path d="M2676 2568 c3 -5 10 -6 15 -3 13 9 11 12 -6 12 -8 0 -12 -4 -9 -9z"/>
<path d="M1834 2119 l1 -172 55 -12 c76 -16 131 -46 178 -101 165 -187 67
-474 -179 -526 l-56 -11 0 -264 c1 -145 3 -263 6 -263 19 0 152 114 237 202
246 256 387 581 413 950 4 68 8 124 7 124 -3 3 -632 237 -647 241 -14 4 -16
-13 -15 -168z"/>
<path d="M149 1847 c-61 -26 -125 -70 -139 -98 -6 -10 -10 -114 -10 -233 l0
-215 42 -34 c60 -48 117 -75 180 -84 150 -23 286 45 359 179 32 59 34 69 34
158 0 82 -4 103 -26 151 -57 121 -164 190 -304 196 -67 3 -89 0 -136 -20z
m205 -80 c16 -12 16 -15 0 -52 -25 -58 -24 -69 13 -116 26 -33 33 -51 33 -86
0 -52 -19 -93 -57 -122 -26 -20 -27 -22 -10 -35 9 -7 17 -21 17 -30 0 -14 -16
-16 -121 -16 -109 0 -120 2 -117 18 3 14 16 17 81 20 42 2 77 6 77 10 0 4 -14
13 -30 19 -19 7 -28 16 -25 25 4 9 -7 18 -30 27 -19 7 -35 17 -35 22 0 14 24
11 46 -6 10 -8 23 -15 28 -15 15 0 -28 36 -65 56 -60 31 -13 26 58 -6 64 -30
67 -32 48 -46 -17 -13 -18 -16 -5 -24 31 -19 88 43 97 106 7 54 -13 72 -56 50
-16 -9 -36 -25 -45 -37 -38 -56 -41 42 -2 117 48 95 70 134 76 134 3 0 14 -6
24 -13z"/>
<path d="M3103 1851 c3 -11 -6 -41 -19 -67 -14 -27 -24 -65 -24 -88 1 -84 64
-167 138 -182 25 -5 32 -12 32 -30 0 -21 -5 -24 -35 -24 -19 0 -35 -4 -35 -10
0 -6 39 -10 96 -10 61 0 93 4 89 10 -3 6 -22 10 -41 10 -30 0 -35 3 -32 21 2
14 16 25 41 34 21 7 46 20 56 29 12 11 20 13 28 5 8 -8 13 -7 18 1 5 7 -3 21
-19 34 -27 21 -27 22 -12 58 20 48 20 74 0 82 -10 4 -14 12 -10 22 8 20 -16
59 -44 74 -19 10 -19 9 -5 -31 13 -36 13 -40 0 -35 -8 3 -15 1 -15 -4 0 -6 -7
-10 -14 -10 -12 0 -13 -6 -5 -30 6 -16 14 -28 19 -25 4 2 8 -7 8 -20 0 -29 -5
-30 -32 -10 -11 8 -28 13 -38 9 -12 -3 -20 1 -25 13 -4 10 -10 21 -15 24 -5 3
-13 20 -18 38 -7 25 -6 33 5 38 8 3 12 9 9 14 -3 5 -1 9 4 9 5 0 12 9 15 20 6
24 4 24 -33 5 -28 -15 -30 -14 -52 15 -25 34 -43 39 -35 11z m31 -77 c-15 -23
-15 -26 -3 -17 19 16 29 7 29 -24 0 -20 -4 -23 -27 -18 -27 6 -27 6 4 -10 28
-15 32 -22 29 -51 -2 -24 2 -34 11 -34 8 0 12 3 10 8 -6 9 45 8 60 -1 6 -4 13
-20 16 -37 7 -35 25 -38 68 -13 29 17 47 14 34 -7 -12 -20 -72 -40 -116 -40
-134 0 -212 156 -133 268 24 35 41 12 18 -24z"/>
<path d="M3126 1687 c3 -10 9 -15 12 -12 3 3 0 11 -7 18 -10 9 -11 8 -5 -6z"/>
<path d="M3146 1599 c8 -14 84 -49 104 -48 9 0 1 12 -20 29 -33 29 -100 44
-84 19z"/>
<path d="M1838 1853 c7 -3 16 -2 19 1 4 3 -2 6 -13 5 -11 0 -14 -3 -6 -6z"/>
<path d="M1878 1843 c7 -3 16 -2 19 1 4 3 -2 6 -13 5 -11 0 -14 -3 -6 -6z"/>
<path d="M1952 1811 c25 -16 48 -36 51 -45 5 -11 -5 -8 -34 11 -24 15 -59 28
-88 31 l-48 4 0 -211 c1 -234 -4 -221 68 -199 52 15 117 73 140 122 43 95 9
227 -74 287 -22 16 -45 29 -50 29 -6 0 10 -13 35 -29z"/>
<path d="M1555 1410 c-11 -12 -31 -20 -49 -20 -26 0 -56 -26 -218 -188 -177
-176 -188 -190 -188 -225 0 -49 28 -77 76 -77 33 0 49 12 168 126 229 221 246
239 246 270 0 15 10 38 22 51 l22 24 -30 30 -30 30 -19 -21z"/>
<path d="M615 611 l-70 -27 3 -40 c7 -95 64 -206 135 -258 l27 -20 41 40 c51
49 87 109 105 176 25 96 24 100 -59 131 -41 15 -82 27 -93 26 -10 0 -50 -13
-89 -28z m188 -120 c-5 -3 -33 -21 -62 -40 l-53 -34 -36 36 c-31 31 -33 37
-18 43 11 4 25 -1 39 -15 l23 -21 49 34 c42 28 51 31 59 19 5 -9 4 -18 -1 -22z"/>
<path d="M2621 606 c-24 -14 -50 -51 -51 -74 0 -7 -9 -22 -20 -34 -39 -42 -16
-110 43 -124 21 -5 27 -3 27 10 0 9 -8 16 -18 16 -23 0 -42 19 -42 41 0 36 61
140 87 150 36 14 81 2 99 -26 12 -19 22 -23 43 -19 22 5 32 0 47 -18 11 -14
29 -30 42 -37 15 -8 22 -21 22 -40 0 -31 -14 -47 -44 -52 -11 -2 -21 -10 -24
-18 -7 -22 59 -5 81 20 23 28 22 71 -3 95 -11 10 -32 31 -47 47 -18 19 -36 27
-60 27 -18 0 -33 4 -33 10 0 16 -56 40 -92 40 -18 -1 -44 -7 -57 -14z"/>
<path d="M2669 480 c-18 -17 -27 -35 -23 -42 5 -8 12 -5 24 9 27 34 55 45 85
31 18 -8 24 -17 19 -30 -4 -14 -1 -17 18 -15 38 6 34 39 -7 60 -52 25 -82 22
-116 -13z"/>
<path d="M2640 392 c0 -36 85 -65 135 -46 8 4 22 19 31 35 13 26 13 29 0 29
-9 0 -20 -9 -26 -20 -6 -11 -21 -22 -34 -26 -30 -7 -69 13 -62 32 4 10 -2 14
-19 14 -17 0 -25 -6 -25 -18z"/>
</g>
</svg>
